# xmcd CD database file
#
# Track frame offsets:
#	150
#	20937
#	41315
#	62750
#	86130
#	104667
#	110482
#	128672
#	147050
#	163460
#	179847
#
# Disc length: 2646 seconds
#
# Revision: 1
# Processed by: cddbd v1.5.1PL0 Copyright (c) Steve Scherf et al.
# Submitted via: CDex 1.51
#
DISCID=a40a540b
DTITLE=Monarch - Monarch
DYEAR=1997
DGENRE=Hard Rock
TTITLE0=City Of Lost Angels
TTITLE1=Sunday Morning
TTITLE2=Love Takes Forever
TTITLE3=Just Yesterday
TTITLE4=Tonight
TTITLE5=Pagannini
TTITLE6=Scorpio
TTITLE7=Eva
TTITLE8=Survival
TTITLE9=Weren't You The One
TTITLE10=A Winter Song
EXTD=YEAR: 1997
EXTT0=
EXTT1=
EXTT2=
EXTT3=
EXTT4=
EXTT5=
EXTT6=
EXTT7=
EXTT8=
EXTT9=
EXTT10=
PLAYORDER=
